<?xml version="1.0" standalone="no"?>
<!DOCTYPE svg PUBLIC "-//W3C//DTD SVG 20010904//EN"
 "http://www.w3.org/TR/2001/REC-SVG-20010904/DTD/svg10.dtd">
<svg version="1.0" xmlns="http://www.w3.org/2000/svg"
 width="500.000000pt" height="500.000000pt" viewBox="0 0 500.000000 500.000000"
 preserveAspectRatio="xMidYMid meet">
<metadata>
Created by potrace 1.15, written by Peter Selinger 2001-2017
</metadata>
<g transform="translate(0.000000,500.000000) scale(0.100000,-0.100000)"
fill="#000000" stroke="none">
<path d="M0 2500 l0 -2500 2500 0 2500 0 0 2500 0 2500 -2500 0 -2500 0 0
-2500z m3751 1886 c107 -25 190 -91 246 -198 l28 -53 0 -1635 0 -1635 -29 -58
c-36 -71 -108 -140 -184 -175 l-57 -27 -1255 0 -1255 0 -60 29 c-76 38 -149
110 -183 184 l-27 57 0 1625 0 1625 21 45 c52 109 141 187 244 214 78 21 2424
23 2511 2z"/>
<path d="M1312 4258 c-79 -13 -149 -68 -183 -143 -18 -38 -19 -111 -19 -1616
l0 -1575 26 -52 c28 -56 67 -92 127 -117 33 -14 177 -15 1242 -15 l1206 0 45
21 c58 28 111 90 129 153 22 75 22 3097 0 3172 -18 61 -64 118 -118 147 l-42
22 -1187 5 c-652 3 -1204 2 -1226 -2z m798 -824 c0 -354 3 -445 13 -441 262
100 612 150 797 113 206 -42 322 -146 365 -328 12 -53 15 -192 15 -861 l0
-797 -207 2 -208 3 -3 782 -2 782 -29 20 c-33 24 -98 40 -160 41 -163 1 -537
-94 -872 -221 -72 -27 -133 -49 -135 -49 -2 0 -4 315 -4 700 l0 700 215 0 215
0 0 -446z m1344 424 c-22 -72 -145 -285 -252 -435 l-65 -93 -229 0 c-125 0
-228 2 -228 4 0 2 33 53 73 113 40 59 110 181 155 271 l83 162 235 0 235 0 -7
-22z m-1547 -2515 l-217 -218 0 435 0 435 217 -218 218 -217 -218 -217z"/>
</g>
</svg>
