<?xml version="1.0" encoding="UTF-8" standalone="no"?><!-- Generator: Gravit.io --><svg xmlns="http://www.w3.org/2000/svg" xmlns:xlink="http://www.w3.org/1999/xlink" style="isolation:isolate" viewBox="0 0 500 500" width="500pt" height="500pt"><defs><clipPath id="_clipPath_YYxQhndZhr6mvshMcmbACz3npjqDW9nP"><rect width="500" height="500"/></clipPath></defs><g clip-path="url(#_clipPath_YYxQhndZhr6mvshMcmbACz3npjqDW9nP)"><path d="M 35 0 L 465 0 C 484.317 0 500 15.683 500 35 L 500 465 C 500 484.317 484.317 500 465 500 L 35 500 C 15.683 500 0 484.317 0 465 L 0 35 C 0 15.683 15.683 0 35 0 Z" style="stroke:none;fill:#FFFFFF;stroke-miterlimit:10;"/><g style="isolation:isolate"><path d=" M 401.92 39 L 98.08 39 C 77.107 39 60.1 56.007 60.1 76.98 L 60.1 423.02 C 60.1 443.993 77.107 461 98.08 461 L 401.92 461 C 422.893 461 439.9 443.993 439.9 423.02 L 439.9 76.98 C 439.9 56.007 422.893 39 401.92 39 Z  M 155.05 397.7 L 155.05 313.3 L 202.525 355.5 L 155.05 397.7 Z  M 302.75 397.7 L 302.75 271.68 C 302.544 261.832 297.802 250 276.375 250 C 233.468 250 185.339 271.58 184.859 271.796 L 155.05 285.3 L 155.05 102.3 L 197.25 102.3 L 197.25 222.101 C 218.318 215.243 247.769 207.8 276.375 207.8 C 302.46 207.8 318.074 218.055 326.577 226.658 C 344.728 245.015 344.976 268.399 344.951 271.1 L 344.951 397.7 L 302.75 397.7 Z  M 313.3 170.875 L 271.1 170.875 C 287.685 149.116 298.097 126.217 302.75 102.3 L 344.95 102.3 C 342.101 126.27 332.385 149.247 313.3 170.875 Z " fill="rgb(67,0,152)"/></g></g></svg>